HIERARCHY
ROOT hip
{
  OFFSET 0 0 0
  CHANNELS 6 Xposition Yposition Zposition Zrotation Yrotation Xrotation
  JOINT abdomen
  {
    OFFSET 0 20.6881 -0.73152
    CHANNELS 3 Zrotation Xrotation Yrotation
    JOINT chest
    {
      OFFSET 0 11.7043 -0.48768
      CHANNELS 3 Zrotation Xrotation Yrotation
      JOINT neck
      {
        OFFSET 0 22.1894 -2.19456
        CHANNELS 3 Zrotation Xrotation Yrotation
        JOINT head
        {
          OFFSET -0.24384 7.07133 1.2192
          CHANNELS 3 Zrotation Xrotation Yrotation
          JOINT leftEye
          {
            OFFSET 4.14528 8.04674 8.04672
            CHANNELS 3 Zrotation Xrotation Yrotation
            End Site
            {
              OFFSET 1 0 0
            }
          }
          JOINT rightEye
          {
            OFFSET -3.6576 8.04674 8.04672
            CHANNELS 3 Zrotation Xrotation Yrotation
            End Site
            {
              OFFSET 1 0 0
            }
          }
        }
      }
      JOINT rCollar
      {
        OFFSET -2.68224 19.2634 -4.8768
        CHANNELS 3 Zrotation Xrotation Yrotation
        JOINT rShldr
        {
          OFFSET -8.77824 -1.95073 1.46304
          CHANNELS 3 Zrotation Xrotation Yrotation
          JOINT rForeArm
          {
            OFFSET -28.1742 -1.7115 0.48768
            CHANNELS 3 Zrotation Xrotation Yrotation
            JOINT rHand
            {
              OFFSET -22.5879 0.773209 7.07136
              CHANNELS 3 Zrotation Xrotation Yrotation
              JOINT rThumb1
              {
                OFFSET -1.2192 -0.487915 3.41376
                CHANNELS 3 Zrotation Xrotation Yrotation
                JOINT rThumb2
                {
                  OFFSET -3.37035 -0.52449 3.41376
                  CHANNELS 3 Zrotation Xrotation Yrotation
                  End Site
                  {
                    OFFSET -1.78271 -1.18214 1.43049
                  }
                }
              }
              JOINT rIndex1
              {
                OFFSET -7.75947 0.938293 5.60832
                CHANNELS 3 Zrotation Xrotation Yrotation
                JOINT rIndex2
                {
                  OFFSET -2.54057 -0.884171 1.56538
                  CHANNELS 3 Zrotation Xrotation Yrotation
                  End Site
                  {
                    OFFSET -1.62519 -0.234802 1.16502
                  }
                }
              }
              JOINT rMid1
              {
                OFFSET -8.24714 1.18213 3.41376
                CHANNELS 3 Zrotation Xrotation Yrotation
                JOINT rMid2
                {
                  OFFSET -3.10165 -0.590103 1.0647
                  CHANNELS 3 Zrotation Xrotation Yrotation
                  End Site
                  {
                    OFFSET -2.48547 -0.328903 0.83742
                  }
                }
              }
              JOINT rRing1
              {
                OFFSET -8.82822 0.546677 1.51678
                CHANNELS 3 Zrotation Xrotation Yrotation
                JOINT rRing2
                {
                  OFFSET -2.60934 -0.819778 -0.0198488
                  CHANNELS 3 Zrotation Xrotation Yrotation
                  End Site
                  {
                    OFFSET -2.33842 -0.294052 0.168128
                  }
                }
              }
              JOINT rPinky1
              {
                OFFSET -8.27202 -0.0477905 -0.4584
                CHANNELS 3 Zrotation Xrotation Yrotation
                JOINT rPinky2
                {
                  OFFSET -1.82734 -0.647385 -0.700984
                  CHANNELS 3 Zrotation Xrotation Yrotation
                  End Site
                  {
                    OFFSET -1.69225 -0.51767 -0.607171
                  }
                }
              }
            }
          }
        }
      }
      JOINT lCollar
      {
        OFFSET 2.68224 19.2634 -4.8768
        CHANNELS 3 Zrotation Xrotation Yrotation
        JOINT lShldr
        {
          OFFSET 8.77824 -1.95073 1.46304
          CHANNELS 3 Zrotation Xrotation Yrotation
          JOINT lForeArm
          {
            OFFSET 28.1742 -1.7115 0.48768
            CHANNELS 3 Zrotation Xrotation Yrotation
            JOINT lHand
            {
              OFFSET 22.5879 0.773209 7.07136
              CHANNELS 3 Zrotation Xrotation Yrotation
              JOINT lThumb1
              {
                OFFSET 1.2192 -0.487915 3.41376
                CHANNELS 3 Zrotation Xrotation Yrotation
                JOINT lThumb2
                {
                  OFFSET 3.37035 -0.52449 3.41376
                  CHANNELS 3 Zrotation Xrotation Yrotation
                  End Site
                  {
                    OFFSET 1.78271 -1.18214 1.43049
                  }
                }
              }
              JOINT lIndex1
              {
                OFFSET 7.75947 0.938293 5.60832
                CHANNELS 3 Zrotation Xrotation Yrotation
                JOINT lIndex2
                {
                  OFFSET 2.54057 -0.884171 1.56538
                  CHANNELS 3 Zrotation Xrotation Yrotation
                  End Site
                  {
                    OFFSET 1.62519 -0.234802 1.16502
                  }
                }
              }
              JOINT lMid1
              {
                OFFSET 8.24714 1.18213 3.41376
                CHANNELS 3 Zrotation Xrotation Yrotation
                JOINT lMid2
                {
                  OFFSET 3.10165 -0.590103 1.0647
                  CHANNELS 3 Zrotation Xrotation Yrotation
                  End Site
                  {
                    OFFSET 2.48547 -0.328903 0.83742
                  }
                }
              }
              JOINT lRing1
              {
                OFFSET 8.82822 0.546677 1.51678
                CHANNELS 3 Zrotation Xrotation Yrotation
                JOINT lRing2
                {
                  OFFSET 2.60934 -0.819778 -0.0198488
                  CHANNELS 3 Zrotation Xrotation Yrotation
                  End Site
                  {
                    OFFSET 2.33842 -0.294052 0.168128
                  }
                }
              }
              JOINT lPinky1
              {
                OFFSET 8.27202 -0.0477905 -0.4584
                CHANNELS 3 Zrotation Xrotation Yrotation
                JOINT lPinky2
                {
                  OFFSET 1.82734 -0.647385 -0.700984
                  CHANNELS 3 Zrotation Xrotation Yrotation
                  End Site
                  {
                    OFFSET 1.69225 -0.51767 -0.607171
                  }
                }
              }
            }
          }
        }
      }
    }
  }
  JOINT rButtock
  {
    OFFSET -8.77824 4.35084 1.2192
    CHANNELS 3 Zrotation Xrotation Yrotation
    JOINT rThigh
    {
      OFFSET 0 -1.70687 -2.19456
      CHANNELS 3 Zrotation Xrotation Yrotation
      JOINT rShin
      {
        OFFSET 0 -36.8199 0.73152
        CHANNELS 3 Zrotation Xrotation Yrotation
        JOINT rFoot
        {
          OFFSET 0.73152 -45.1104 -5.12064
          CHANNELS 3 Zrotation Xrotation Yrotation
          End Site
          {
            OFFSET -1.1221 -3.69964 12.103
          }
        }
      }
    }
  }
  JOINT lButtock
  {
    OFFSET 8.77824 4.35084 1.2192
    CHANNELS 3 Zrotation Xrotation Yrotation
    JOINT lThigh
    {
      OFFSET 0 -1.70687 -2.19456
      CHANNELS 3 Zrotation Xrotation Yrotation
      JOINT lShin
      {
        OFFSET 0 -36.8199 0.73152
        CHANNELS 3 Zrotation Xrotation Yrotation
        JOINT lFoot
        {
          OFFSET -0.73152 -45.1104 -5.12064
          CHANNELS 3 Zrotation Xrotation Yrotation
          End Site
          {
            OFFSET 1.1221 -3.69964 12.103
          }
        }
      }
    }
  }
}
MOTION
Frames:	7
Frame Time:	0.00833333
-5.18095 89.8697 -5.55868 -172.086 7.8661 -165.122 5.21697 -17.7624 10.4966 -1.94533 -5.00207 3.38577 -2.14166 8.1119 1.71678 3.32474 12.9363 -2.60047 -0.0 0.0 0.0 -0.0 0.0 0.0 -2.69687e-14 5.33204e-15 -2.77773e-13 10.2384 51.7489 -13.4976 -23.0852 -17.4849 46.8137 -0.307973 15.5982 2.24856 -6.20491e-10 -2.5685e-09 8.72415e-10 -1.06085e-09 -4.45192e-09 1.51082e-09 -6.20489e-10 -2.56849e-09 8.72399e-10 7.73091 5.47488 0.417314 -6.20488e-10 -2.5685e-09 8.72409e-10 2.90554 0.965183 0.102902 -6.20487e-10 -2.5685e-09 8.72412e-10 10.2786 0.731801 0.0259123 -6.20492e-10 -2.5685e-09 8.72419e-10 2.22167 -0.733487 -0.20892 -2.67872e-14 5.32926e-15 -2.77823e-13 5.37035 50.3867 -2.36385 23.7089 -18.5779 -48.6304 2.34769 39.2047 -6.58366 -1.51823e-09 1.70618e-11 -7.94154e-11 -2.6183e-09 1.61044e-10 -9.55688e-11 -1.51824e-09 1.70811e-11 -7.94053e-11 -7.73091 5.47488 -0.417314 -1.51823e-09 1.70784e-11 -7.9414e-11 -2.90554 0.965183 -0.102902 -1.51824e-09 1.70696e-11 -7.94171e-11 -10.2786 0.731801 -0.0259123 -1.51823e-09 1.70809e-11 -7.94178e-11 -2.22167 -0.733487 0.20892 -2.03217e-16 0.0 -3.88251e-19 -71.6974 -11.9938 -84.7203 -175.561 67.3839 174.124 7.37154 17.0955 -55.8351 2.03217e-16 0.0 3.88251e-19 -4.17108 -44.9304 -5.41205 0.487503 45.3383 -0.0631703 12.6258 -26.0535 25.4325
-5.24518 89.95 -6.33753 -171.559 7.2899 -164.755 5.75462 -18.2089 10.6322 -2.23035 -4.99917 3.42221 -2.20704 8.1593 1.72882 3.52919 13.1526 -2.66442 -0.0 0.0 0.0 -0.0 0.0 0.0 -7.26434e-14 3.15092e-14 -2.62442e-13 11.8059 49.4645 -16.0545 -22.425 -16.4114 44.9298 -0.317083 15.8182 2.28198 -1.16575e-09 -6.8387e-11 5.09764e-12 -2.01505e-09 -1.27195e-10 1.9116e-11 -1.16574e-09 -6.83764e-11 5.08793e-12 7.73091 5.47488 0.417314 -1.16574e-09 -6.8393e-11 5.10086e-12 2.90554 0.965183 0.102902 -1.16574e-09 -6.83823e-11 5.09687e-12 10.2786 0.731801 0.0259123 -1.16575e-09 -6.83802e-11 5.10686e-12 2.22167 -0.733487 -0.20892 -7.25052e-14 3.15068e-14 -2.6257e-13 3.8971 50.0083 -0.883551 23.0356 -17.4141 -46.5855 2.37225 39.3592 -6.62115 -1.00218e-09 -8.20673e-10 -4.84763e-10 -1.74094e-09 -1.33112e-09 -8.10889e-10 -1.00218e-09 -8.2066e-10 -4.84753e-10 -7.73091 5.47488 -0.417314 -1.00218e-09 -8.20663e-10 -4.84761e-10 -2.90554 0.965183 -0.102902 -1.00219e-09 -8.20668e-10 -4.84764e-10 -10.2786 0.731801 -0.0259123 -1.00218e-09 -8.2066e-10 -4.84766e-10 -2.22167 -0.733487 0.20892 -2.03217e-16 0.0 -3.88251e-19 -75.0057 -3.13091 -88.8425 -175.828 65.086 174.299 8.23902 17.8366 -56.6599 2.03217e-16 0.0 3.88251e-19 -4.0986 -44.8277 -5.30414 0.48469 45.3733 -0.0566665 12.7604 -26.0338 25.7583
-5.30763 90.0768 -7.09839 -171.209 6.9108 -164.461 6.26928 -18.6432 10.7477 -2.52171 -4.98744 3.45094 -2.25646 8.20617 1.74479 3.72918 13.3838 -2.72798 -0.0 0.0 0.0 -0.0 0.0 0.0 -1.26914e-13 5.66426e-14 -2.35521e-13 12.8876 47.1417 -18.1357 -21.7017 -15.3132 42.9773 -0.328552 16.0909 2.32348 -1.67317e-09 2.52888e-09 -8.75e-10 -2.90392e-09 4.36338e-09 -1.49504e-09 -1.67317e-09 2.52889e-09 -8.75004e-10 7.73091 5.47488 0.417314 -1.67316e-09 2.52887e-09 -8.74988e-10 2.90554 0.965183 0.102902 -1.67316e-09 2.52889e-09 -8.74999e-10 10.2786 0.731801 0.0259123 -1.67317e-09 2.52889e-09 -8.74986e-10 2.22167 -0.733487 -0.20892 -1.26832e-13 5.66409e-14 -2.35725e-13 2.58124 49.491 0.447486 22.2874 -16.2054 -44.5035 2.42447 39.7035 -6.70311 -4.44716e-10 -1.70116e-09 -8.73789e-10 -7.91598e-10 -2.89749e-09 -1.49907e-09 -4.4472e-10 -1.70115e-09 -8.73779e-10 -7.73091 5.47488 -0.417314 -4.44715e-10 -1.70116e-09 -8.73786e-10 -2.90554 0.965183 -0.102902 -4.44724e-10 -1.70116e-09 -8.73789e-10 -10.2786 0.731801 -0.0259123 -4.4471e-10 -1.70115e-09 -8.73792e-10 -2.22167 -0.733487 0.20892 -2.03217e-16 0.0 -3.88251e-19 -76.8627 0.675094 -90.2148 -176.026 62.9083 174.384 9.7155 18.9599 -57.4328 2.03217e-16 0.0 3.88251e-19 -4.00642 -44.7474 -5.15385 0.483795 45.4488 -0.0453078 12.8562 -26.0348 26.0103
-5.33158 90.1662 -7.75305 -170.906 6.638 -164.189 6.66154 -19.0224 10.7577 -2.78018 -4.97384 3.45067 -2.2437 8.23635 1.76339 3.79224 13.5515 -2.75471 -0.0 0.0 0.0 -0.0 0.0 0.0 -1.64344e-13 6.20218e-14 -2.13743e-13 13.4095 44.9226 -19.6779 -20.9221 -14.2176 40.9682 -0.341327 16.3923 2.36945 -1.81236e-09 3.91422e-09 -1.34255e-09 -3.15061e-09 6.75967e-09 -2.3008e-09 -1.81236e-09 3.91422e-09 -1.34255e-09 7.73091 5.47488 0.417314 -1.81235e-09 3.91421e-09 -1.34254e-09 2.90554 0.965183 0.102902 -1.81236e-09 3.91423e-09 -1.34255e-09 10.2786 0.731801 0.0259123 -1.81236e-09 3.91423e-09 -1.34254e-09 2.22167 -0.733487 -0.20892 -1.64307e-13 6.20206e-14 -2.13992e-13 1.18147 48.6388 1.9093 21.5139 -15.044 -42.4954 2.51195 40.2847 -6.84149 -7.30446e-11 -2.08927e-09 -1.01959e-09 -1.55002e-10 -3.6002e-09 -1.76165e-09 -7.30478e-11 -2.08927e-09 -1.01958e-09 -7.73091 5.47488 -0.417314 -7.30428e-11 -2.08927e-09 -1.01959e-09 -2.90554 0.965183 -0.102902 -7.30522e-11 -2.08927e-09 -1.01959e-09 -10.2786 0.731801 -0.0259123 -7.30377e-11 -2.08926e-09 -1.01959e-09 -2.22167 -0.733487 0.20892 -2.03217e-16 0.0 -3.88251e-19 -76.2791 -9.11909 -87.3265 -176.167 60.8149 174.382 12.0792 20.6474 -58.0946 2.03217e-16 0.0 3.88251e-19 -4.00342 -44.7502 -5.04452 0.486091 45.5924 -0.0254809 12.947 -25.9623 26.3235
-5.31583 90.165 -8.25733 -170.549 6.2844 -163.849 6.90143 -19.3282 10.6122 -3.00391 -4.9538 3.40607 -2.13323 8.26953 1.78969 3.63898 13.5962 -2.71783 -0.0 0.0 0.0 -0.0 0.0 0.0 -1.88257e-13 2.23889e-14 -1.98784e-13 13.4182 42.9417 -20.6915 -20.0831 -13.1245 38.8697 -0.353292 16.6487 2.40897 -1.35925e-09 3.45597e-09 -1.22937e-09 -2.36567e-09 5.97075e-09 -2.11003e-09 -1.35925e-09 3.45598e-09 -1.22936e-09 7.73091 5.47488 0.417314 -1.35924e-09 3.45597e-09 -1.22935e-09 2.90554 0.965183 0.102902 -1.35925e-09 3.45598e-09 -1.22936e-09 10.2786 0.731801 0.0259123 -1.35925e-09 3.45598e-09 -1.22935e-09 2.22167 -0.733487 -0.20892 -1.88255e-13 2.23879e-14 -1.9903e-13 -0.399925 47.3706 3.61152 20.7457 -13.9785 -40.547 2.66294 41.2502 -7.07663 1.90801e-11 -1.76011e-09 -8.34967e-10 9.70648e-12 -3.04695e-09 -1.4449e-09 1.90781e-11 -1.76011e-09 -8.3496e-10 -7.73091 5.47488 -0.417314 1.90828e-11 -1.76011e-09 -8.34963e-10 -2.90554 0.965183 -0.102902 1.90722e-11 -1.76011e-09 -8.34966e-10 -10.2786 0.731801 -0.0259123 1.90875e-11 -1.76011e-09 -8.34971e-10 -2.22167 -0.733487 0.20892 -2.03217e-16 0.0 -3.88251e-19 -66.4564 -41.1949 -74.7366 -176.263 58.8061 174.284 15.8934 23.2867 -58.7415 2.03217e-16 0.0 3.88251e-19 -4.12756 -44.8636 -5.01238 0.493024 45.8408 0.00884814 13.0469 -25.8604 26.7081
-5.32387 90.114 -8.7946 -170.206 5.9355 -163.548 7.04035 -19.586 10.3646 -3.21086 -4.92572 3.33171 -1.95747 8.30631 1.82258 3.35455 13.5726 -2.64241 -0.0 0.0 0.0 -0.0 0.0 0.0 -2.0885e-13 -4.55211e-14 -1.82649e-13 13.0737 41.1096 -21.3116 -19.1762 -12.0201 36.6821 -0.36564 16.8953 2.44731 -5.35374e-10 1.94652e-09 -7.80537e-10 -9.35287e-10 3.36475e-09 -1.34359e-09 -5.35371e-10 1.94652e-09 -7.80536e-10 7.73091 5.47488 0.417314 -5.35371e-10 1.94651e-09 -7.80529e-10 2.90554 0.965183 0.102902 -5.3537e-10 1.94652e-09 -7.80534e-10 10.2786 0.731801 0.0259123 -5.35376e-10 1.94652e-09 -7.80526e-10 2.22167 -0.733487 -0.20892 -2.08881e-13 -4.5522e-14 -1.82863e-13 -1.95078 45.7968 5.34242 19.9658 -12.9722 -38.5987 2.8789 42.5286 -7.40188 -3.61108e-11 -1.02649e-09 -4.4983e-10 -7.34327e-11 -1.78534e-09 -7.77155e-10 -3.61112e-11 -1.02649e-09 -4.49828e-10 -7.73091 5.47488 -0.417314 -3.61068e-11 -1.02649e-09 -4.49826e-10 -2.90554 0.965183 -0.102902 -3.61191e-11 -1.02649e-09 -4.49831e-10 -10.2786 0.731801 -0.0259123 -3.6103e-11 -1.02649e-09 -4.49837e-10 -2.22167 -0.733487 0.20892 -2.03217e-16 0.0 -3.88251e-19 18.3091 -70.8526 12.8705 -176.335 56.8981 174.123 20.911 26.7107 -59.6205 2.03217e-16 0.0 3.88251e-19 -4.31755 -45.0513 -5.00819 0.502996 46.1692 0.0544594 13.1356 -25.7561 27.1003
-5.44262 90.051 -9.47855 -170.054 5.6418 -163.453 7.1003 -19.8183 10.0844 -3.39169 -4.90111 3.25118 -1.77197 8.30198 1.85147 3.05269 13.5733 -2.56956 -0.0 0.0 0.0 -0.0 0.0 0.0 -2.10998e-13 -9.74289e-14 -1.67562e-13 12.4644 39.2271 -21.6554 -18.2113 -10.9226 34.4624 -0.382822 17.2717 2.50531 3.21257e-10 2.1279e-10 -1.90683e-10 5.53883e-10 3.70183e-10 -3.34131e-10 3.21262e-10 2.12797e-10 -1.90684e-10 7.73091 5.47488 0.417314 3.21257e-10 2.12791e-10 -1.90682e-10 2.90554 0.965183 0.102902 3.21262e-10 2.12795e-10 -1.90681e-10 10.2786 0.731801 0.0259123 3.21255e-10 2.12796e-10 -1.90677e-10 2.22167 -0.733487 -0.20892 -2.11055e-13 -9.74296e-14 -1.67737e-13 -3.24411 44.0089 6.89899 19.1725 -12.0115 -36.6856 3.12057 43.8397 -7.75318 -1.26844e-10 -1.59794e-10 3.70525e-11 -2.14385e-10 -2.87358e-10 6.69395e-11 -1.26843e-10 -1.59788e-10 3.70509e-11 -7.73091 5.47488 -0.417314 -1.26839e-10 -1.59787e-10 3.70569e-11 -2.90554 0.965183 -0.102902 -1.26853e-10 -1.59788e-10 3.70518e-11 -10.2786 0.731801 -0.0259123 -1.26836e-10 -1.59788e-10 3.70438e-11 -2.22167 -0.733487 0.20892 -2.03217e-16 0.0 -3.88251e-19 76.3708 -31.9274 76.385 -176.398 55.0781 173.943 26.1782 30.2539 -60.7975 2.03217e-16 0.0 3.88251e-19 -4.53233 -45.2793 -4.98629 0.512949 46.5142 0.100912 13.1915 -25.5306 27.5232
